<svg xmlns="http://www.w3.org/2000/svg" width="64" height="64" viewBox="0 0 64 64" role="img" aria-label="PB Finance">
  <title>PB Finance</title>
  <rect width="64" height="64" rx="16" fill="#0B1F3A"/>
  <path fill="#2563EB" d="M13 15h12.5C33.7 15 38 18.9 38 25.9 38 33 33.6 37 25.4 37h-5.2v12H13V15Zm7.2 6.1v9.8h4.7c3.8 0 5.8-1.7 5.8-5 0-3.2-2-4.8-5.8-4.8h-4.7Z"/>
  <path fill="#A67C38" d="M34 15h10.8c7 0 10.8 3.1 10.8 8.8 0 3.5-1.7 6-4.7 7.2 3.9 1.1 6.1 4 6.1 8.2C57 45.6 52.8 49 45.1 49H34V15Zm7 5.8v7.8h3.3c2.9 0 4.4-1.3 4.4-3.9 0-2.6-1.5-3.9-4.4-3.9H41Zm0 13.2v9.2h3.9c3.4 0 5.1-1.5 5.1-4.6 0-3-1.7-4.6-5.1-4.6H41Z"/>
</svg>
